<svg id="Layer_1" data-name="Layer 1" xmlns="http://www.w3.org/2000/svg" viewBox="0 0 274.91 215.14"><defs><style>.cls-1{fill:#4e4e4e;}</style></defs><path class="cls-1" d="M55.72,29C57.8,22.47,47.25,14.58,41,17s-8.82,10.56-9.43,18.78H50v1.6H31.51c-.09,1.78-.12,3.61-.12,5.46V76.91h0c.05,10.32,2.63,17.31,7.9,18.64H15.67c5.27-1.33,7.85-8.32,7.91-18.64V42.83h0a40.7,40.7,0,0,1,.36-5.46H13.73v-1.6H24.14L24,36.91c1.9-12.46,9.71-18.64,16.31-21.34A20.22,20.22,0,0,1,62.74,20Z"/><path class="cls-1" d="M84.9,50.94c1.12-3.29-1.15-7.38-4.72-9.52-5-2.82-9.72-3-14-.76-5.12,2.71-6.7,7.56-7.14,13.39v23h0c.05,10.32,2.63,17.31,7.9,18.64H43.33c5.28-1.33,7.85-8.32,7.91-18.64h0V55.4c-.14-10-2.73-16.77-7.9-18.08H59.05v6.94a27.66,27.66,0,0,1,6.42-5c7.11-4.07,18.06-5.65,26.45,2.77C91.92,42,87,48.22,84.9,50.94Z"/><path class="cls-1" d="M147.6,86.34a30.57,30.57,0,1,1-5-44.34l-4.32,5.33h0L108.59,83.7c7.91,9.44,19.65,13.31,28.86,8.64a18.92,18.92,0,0,0,7.91-7.69Zm-39.8-3.63,29.63-36.25c-7.73-7.34-18-10-26.2-5.8C100,46.35,96.81,62.52,104.05,76.79A35.44,35.44,0,0,0,107.8,82.71Z"/><path class="cls-1" d="M190,93.66c-12.9,6.16-33.49.49-39.06-3.33h0l4.34-4.72h0l3.68-4c-1.88,3.53-.91,7,7.83,10.54,8.07,2.86,17.23,3.48,22.64.5,10.34-5.69,5.41-21-19.69-25.38-27.33-4.83-19.08-23.7-7.94-29.26,4.21-2.1,8.91-2.76,13.86-2.76a35.22,35.22,0,0,1,20,6.09h0l-1.83,2h0l-6,6.47c1.87-3.53,1-7.21-7.68-10.76-6.18-2.43-12.68-2.81-17.81,0-8.42,4.55-6.73,17.89,9.16,20.95C206.81,66.78,205.38,86.29,190,93.66Z"/><path class="cls-1" d="M265.46,95.71H241.84c5.27-1.33,6.81-7.91,5.14-18.64C242.58,49.89,239,39,230.48,39c-6.26,0-13.3,10.6-14.54,22.47V77.07c.06,10.32,2.64,17.31,7.91,18.64H200.23c5.27-1.33,7.85-8.32,7.9-18.64h0V32.45h0c0-10.32-2.63-17.32-7.9-18.65h15.71v41c2.92-11.37,9.51-18.86,17.2-18.86,12.52,0,15.89,6.75,21.56,41.14C256.36,87.48,260.18,94.38,265.46,95.71Z"/><path class="cls-1" d="M77.74,158a29.57,29.57,0,1,1-4.8-42.89l-4.18,5.16h0L40,155.45c7.65,9.14,19,12.88,27.92,8.36a18.27,18.27,0,0,0,7.65-7.43Zm-38.5-3.51L67.9,119.44c-7.47-7.1-17.38-9.65-25.34-5.61-10.84,5.5-14,21.14-7,35A34.54,34.54,0,0,0,39.24,154.5Z"/><path class="cls-1" d="M150.9,110.45c-5.1,1.07-11.22,4-16.33,14.93L116,165.19c-.27.59-.55,1.18-.82,1.75l-.06.14c-7.2,15.17-13.1,22.64-21.66,28.24a42.84,42.84,0,0,1-14.2,6v-9a33.6,33.6,0,0,0,13-3.16c9.37-4.49,15.5-10.39,21.17-22.11h0L93.8,125.53h0c-4.11-8.75-9.48-13.87-14.58-14.93h22.84c-5.1,1.06-4.82,6.17-.7,14.93l15.78,33.54L133,125.38c5.62-11.94,2.73-14.11-1.55-14.93h9.34l-.07.15h.16l.06-.15Z"/><path class="cls-1" d="M199.19,158a29.57,29.57,0,1,1-4.81-42.89l-4.17,5.16h0l-28.76,35.17c7.65,9.14,19,12.88,27.92,8.36a18.27,18.27,0,0,0,7.65-7.43Zm-38.5-3.51,28.66-35.06c-7.48-7.1-17.38-9.65-25.34-5.61-10.84,5.5-13.95,21.14-6.95,35A34.54,34.54,0,0,0,160.69,154.5Z"/><path class="cls-1" d="M242.62,165.74c-12.47,6-32.39.48-37.78-3.21h0l4.19-4.56h0l3.56-3.87c-1.82,3.42-.88,6.77,7.57,10.2,7.81,2.77,16.67,3.36,21.9.48,10-5.51,5.23-20.26-19-24.55-26.44-4.67-18.46-22.92-7.69-28.3,4.07-2,8.63-2.67,13.41-2.67a34.06,34.06,0,0,1,19.32,5.89h0l-1.77,1.93h0l-5.77,6.26c1.81-3.41,1-7-7.42-10.4-6-2.36-12.28-2.72-17.23,0-8.15,4.4-6.52,17.31,8.86,20.27C258.89,139.74,257.51,158.62,242.62,165.74Z"/><path class="cls-1" d="M125.22,194.86c-2.93,1.4-7.61.11-8.88-.76h0l1-1.07h0l.84-.91c-.43.8-.2,1.59,1.78,2.4,1.84.65,3.92.79,5.15.11,2.35-1.29,1.23-4.76-4.48-5.77-6.21-1.1-4.34-5.39-1.8-6.65a6.89,6.89,0,0,1,3.15-.63,8,8,0,0,1,4.54,1.39h0l-.41.45h0l-1.36,1.47c.43-.8.25-1.64-1.74-2.44a4.81,4.81,0,0,0-4,0c-1.91,1-1.53,4.06,2.08,4.76C129.05,188.75,128.72,193.19,125.22,194.86Z"/><path class="cls-1" d="M139.32,194.73a7,7,0,1,1,3.05-9.34A7,7,0,0,1,139.32,194.73Zm1.47-8.54c-1.65-3.24-5-4.83-7.6-3.53s-3.28,5-1.63,8.21,5,4.83,7.59,3.54S142.43,189.43,140.79,186.19Z"/><path class="cls-1" d="M149.49,195.17h-5.37c1.2-.3,1.79-1.89,1.8-4.24h0V180.79h0c0-2.35-.6-3.94-1.8-4.24h3.57v14.38C147.71,193.28,148.29,194.87,149.49,195.17Z"/><path class="cls-1" d="M163.15,195.17h-3.57V193a4.81,4.81,0,0,1-4,2.49c-2.2,0-4.25-.62-4.25-6v-3.4h0c0-2.35-.6-3.94-1.8-4.24h5.37c-1.2.3-1.79,1.89-1.8,4.24h0v3.4c0,3.28.56,5.25,3,5.25a4.12,4.12,0,0,0,3.41-2.39v-6.26h0c0-2.35-.6-3.94-1.8-4.24h5.37c-1.2.3-1.79,1.89-1.8,4.24v4.79C161.36,193.28,162,194.87,163.15,195.17Z"/><path class="cls-1" d="M168.59,195.48c-2.71,0-3.59-.63-3.59-5.94V183.7h0c0-2.58-.32-3.91-1.79-4.24h3.57v2.12h2.51l-.26.36h-2.25v7.6C166.77,192.77,166.79,195,168.59,195.48Z"/><path class="cls-1" d="M174.63,195.17h-5.37c1.2-.3,1.79-1.89,1.8-4.24h0v-4.79h0c0-2.35-.6-3.94-1.8-4.24h3.58v9C172.85,193.28,173.44,194.87,174.63,195.17Zm-4-15.52a1.35,1.35,0,1,1,1.55,1.12A1.35,1.35,0,0,1,170.6,179.65Z"/><path class="cls-1" d="M185.72,194.73a7,7,0,1,1,3.05-9.34A6.94,6.94,0,0,1,185.72,194.73Zm1.47-8.54c-1.65-3.24-5.05-4.83-7.6-3.53s-3.28,5-1.63,8.21,5,4.83,7.6,3.54S188.84,189.43,187.19,186.19Z"/><path class="cls-1" d="M205.46,195.17h-5.37c1.2-.3,1.55-1.8,1.17-4.23-1-6.19-1.81-8.66-3.75-8.66-1,0-2.52,1.27-3.36,3v5.66c0,2.35.6,3.94,1.8,4.24h-5.37c1.19-.3,1.78-1.89,1.79-4.24h0v-4.79h0c0-2.35-.6-3.94-1.79-4.24h3.57v2.59a5,5,0,0,1,4-2.91c2.85,0,3.61,1.53,4.9,9.35C203.39,193.3,204.26,194.87,205.46,195.17Z"/><path class="cls-1" d="M215.42,194.86c-2.93,1.4-7.62.11-8.88-.76h0l1-1.07h0l.84-.91c-.43.8-.21,1.59,1.78,2.4,1.83.65,3.91.79,5.14.11,2.35-1.29,1.23-4.76-4.47-5.77-6.22-1.1-4.34-5.39-1.81-6.65a6.94,6.94,0,0,1,3.15-.63,8,8,0,0,1,4.55,1.39h0l-.42.45h0l-1.36,1.47c.43-.8.24-1.64-1.74-2.44a4.83,4.83,0,0,0-4.06,0c-1.91,1-1.53,4.06,2.09,4.76C219.24,188.75,218.92,193.19,215.42,194.86Z"/></svg>