<svg id="Layer_1" data-name="Layer 1" xmlns="http://www.w3.org/2000/svg" viewBox="0 0 492.22 484.61"><defs><style>.cls-1{fill:#f6f7f7;}</style></defs><path class="cls-1" d="M169.75,167.35c2.08-6.5-8.47-14.39-14.68-12s-8.83,10.55-9.44,18.78H164v1.59h-18.5c-.09,1.79-.12,3.62-.12,5.47v34.08h0c.06,10.32,2.63,17.31,7.91,18.64H129.7c5.27-1.33,7.85-8.32,7.9-18.64V181.21h0a39.31,39.31,0,0,1,.37-5.47H127.76v-1.59h10.4l-.13,1.13c1.9-12.46,9.71-18.63,16.32-21.33a20.24,20.24,0,0,1,22.42,4.46Z"/><path class="cls-1" d="M198.93,189.32c1.11-3.3-1.15-7.39-4.72-9.52-5-2.82-9.72-3-14-.76-5.12,2.71-6.69,7.55-7.14,13.39v23h0c.06,10.32,2.63,17.32,7.91,18.65H157.36c5.27-1.33,7.85-8.33,7.9-18.65h0V193.78c-.14-10-2.73-16.77-7.9-18.08h15.71v6.94a27.6,27.6,0,0,1,6.42-5c7.12-4.07,18.06-5.65,26.46,2.76C206,180.38,201,186.59,198.93,189.32Z"/><path class="cls-1" d="M261.63,224.72a30.57,30.57,0,1,1-5-44.34l-4.32,5.33h0l-29.73,36.36c7.91,9.45,19.65,13.32,28.87,8.65a19,19,0,0,0,7.9-7.69Zm-39.81-3.63,29.64-36.25c-7.73-7.34-18-10-26.2-5.8-11.21,5.68-14.43,21.86-7.19,36.13A36.09,36.09,0,0,0,221.82,221.09Z"/><path class="cls-1" d="M304,232c-12.89,6.16-33.48.49-39.05-3.33h0l4.33-4.71h0l3.68-4c-1.87,3.53-.9,7,7.84,10.54,8.06,2.86,17.23,3.48,22.64.5,10.33-5.7,5.41-20.95-19.69-25.39-27.33-4.82-19.08-23.69-7.95-29.25,4.21-2.1,8.92-2.76,13.87-2.76a35.17,35.17,0,0,1,20,6.09h0l-1.84,2h0l-6,6.48c1.88-3.53,1.06-7.21-7.67-10.76-6.19-2.43-12.69-2.81-17.82,0-8.41,4.55-6.73,17.88,9.17,20.95C320.84,205.15,319.41,224.67,304,232Z"/><path class="cls-1" d="M379.48,234.09H355.86c5.27-1.33,6.81-7.91,5.15-18.64-4.41-27.18-7.95-38.06-16.5-38.06-6.27,0-13.3,10.6-14.54,22.47v15.58c0,10.32,2.63,17.32,7.9,18.65H314.26c5.27-1.33,7.84-8.33,7.9-18.65h0V170.83h0c-.06-10.32-2.63-17.32-7.9-18.65H330v41c2.92-11.38,9.5-18.86,17.2-18.86,12.51,0,15.89,6.74,21.55,41.13C370.39,225.86,374.21,232.76,379.48,234.09Z"/><path class="cls-1" d="M191.77,296.39A29.57,29.57,0,1,1,187,253.5l-4.18,5.16h0L154,293.83c7.65,9.14,19,12.88,27.92,8.36a18.26,18.26,0,0,0,7.64-7.44Zm-38.51-3.51,28.67-35.06c-7.48-7.1-17.39-9.65-25.34-5.62-10.85,5.5-14,21.15-7,35A35.9,35.9,0,0,0,153.26,292.88Z"/><path class="cls-1" d="M264.92,248.83c-5.1,1.07-11.21,4-16.32,14.93L230,303.57l-.82,1.75-.07.13C221.9,320.63,216,328.1,207.44,333.7a42.89,42.89,0,0,1-14.21,6v-9a34.05,34.05,0,0,0,13-3.16c9.36-4.49,15.5-10.39,21.17-22.12h0L207.82,263.9h0c-4.1-8.75-9.48-13.86-14.58-14.93h22.85c-5.1,1.07-4.83,6.18-.71,14.93l15.78,33.55L247,263.76c5.63-11.95,2.73-14.11-1.54-14.93h9.33l-.06.14h.15l.07-.14Z"/><path class="cls-1" d="M313.22,296.39a29.57,29.57,0,1,1-4.81-42.89l-4.18,5.16h0l-28.76,35.17c7.66,9.14,19,12.88,27.93,8.36a18.26,18.26,0,0,0,7.64-7.44Zm-38.51-3.51,28.67-35.06c-7.48-7.1-17.39-9.65-25.34-5.62-10.85,5.5-14,21.15-7,35A35.9,35.9,0,0,0,274.71,292.88Z"/><path class="cls-1" d="M356.64,304.12c-12.47,6-32.39.48-37.77-3.22h0l4.19-4.56h0l3.56-3.87c-1.82,3.41-.87,6.76,7.58,10.2,7.8,2.76,16.66,3.36,21.9.48,10-5.51,5.23-20.27-19.05-24.55-26.44-4.68-18.45-22.92-7.68-28.3,4.07-2,8.62-2.67,13.41-2.67a34.08,34.08,0,0,1,19.32,5.89h0l-1.77,1.93h0l-5.78,6.26c1.82-3.41,1-7-7.42-10.41-6-2.35-12.27-2.72-17.23,0-8.14,4.4-6.51,17.3,8.86,20.27C372.92,278.12,371.53,297,356.64,304.12Z"/><path class="cls-1" d="M239.25,333.24c-2.93,1.4-7.62.11-8.88-.76h0l1-1.07h0l.84-.91c-.43.8-.21,1.59,1.78,2.4,1.83.65,3.91.79,5.14.11,2.35-1.3,1.23-4.76-4.47-5.77-6.22-1.1-4.34-5.39-1.81-6.65A6.94,6.94,0,0,1,236,320a8,8,0,0,1,4.54,1.38h0l-.42.46h0l-1.36,1.47c.43-.8.24-1.64-1.75-2.44a4.81,4.81,0,0,0-4,0c-1.91,1-1.53,4.06,2.09,4.76C243.07,327.13,242.75,331.56,239.25,333.24Z"/><path class="cls-1" d="M253.34,333.11a7,7,0,1,1,3.06-9.35A7,7,0,0,1,253.34,333.11Zm1.47-8.54c-1.64-3.25-5-4.83-7.59-3.54s-3.28,5-1.64,8.22,5,4.83,7.6,3.53S256.46,327.81,254.81,324.57Z"/><path class="cls-1" d="M263.52,333.55h-5.37c1.19-.3,1.78-1.89,1.79-4.24h0V319.17h0c0-2.35-.6-3.94-1.79-4.24h3.57v14.38C261.73,331.66,262.32,333.25,263.52,333.55Z"/><path class="cls-1" d="M277.17,333.55H273.6v-2.17a4.8,4.8,0,0,1-4,2.49c-2.21,0-4.26-.63-4.26-5.95v-3.41h0c0-2.34-.6-3.93-1.8-4.23h5.37c-1.2.3-1.78,1.89-1.79,4.23h0v3.41c0,3.28.56,5.25,3.05,5.25a4.1,4.1,0,0,0,3.4-2.39v-6.27h0c0-2.34-.6-3.93-1.8-4.23h5.37c-1.19.3-1.78,1.89-1.79,4.23v4.8C275.39,331.66,276,333.25,277.17,333.55Z"/><path class="cls-1" d="M282.62,333.86c-2.71,0-3.6-.63-3.6-5.95v-5.83h0c0-2.58-.32-3.91-1.8-4.24h3.58V320h2.51l-.26.36H280.8v7.59C280.8,331.15,280.82,333.38,282.62,333.86Z"/><path class="cls-1" d="M288.66,333.55h-5.37c1.2-.3,1.78-1.89,1.8-4.24h0v-4.8h0c0-2.34-.6-3.93-1.8-4.23h3.57v9C286.87,331.66,287.46,333.25,288.66,333.55Zm-4-15.52a1.35,1.35,0,1,1,1.55,1.12A1.35,1.35,0,0,1,284.62,318Z"/><path class="cls-1" d="M299.74,333.11a7,7,0,1,1,3.06-9.35A7,7,0,0,1,299.74,333.11Zm1.47-8.54c-1.64-3.25-5-4.83-7.59-3.54s-3.28,5-1.64,8.22,5,4.83,7.6,3.53S302.86,327.81,301.21,324.57Z"/><path class="cls-1" d="M319.48,333.55h-5.37c1.2-.3,1.55-1.8,1.17-4.24-1-6.18-1.81-8.65-3.75-8.65-1,0-2.51,1.27-3.36,3v5.66c0,2.35.6,3.94,1.8,4.24H304.6c1.2-.3,1.78-1.89,1.8-4.24h0v-4.8h0c0-2.34-.6-3.93-1.8-4.23h3.57v2.59a5,5,0,0,1,4-2.91c2.84,0,3.61,1.53,4.9,9.35C317.41,331.68,318.28,333.25,319.48,333.55Z"/><path class="cls-1" d="M329.44,333.24c-2.93,1.4-7.61.11-8.88-.76h0l1-1.07h0l.84-.91c-.43.8-.2,1.59,1.78,2.4,1.84.65,3.92.79,5.15.11,2.35-1.3,1.23-4.76-4.48-5.77-6.21-1.1-4.34-5.39-1.8-6.65a6.89,6.89,0,0,1,3.15-.63,8,8,0,0,1,4.54,1.38h0l-.41.46h0L329,323.27c.43-.8.25-1.64-1.74-2.44a4.81,4.81,0,0,0-4,0c-1.91,1-1.53,4.06,2.08,4.76C333.27,327.13,332.94,331.56,329.44,333.24Z"/></svg>