<svg id="Layer_1" data-name="Layer 1" xmlns="http://www.w3.org/2000/svg" viewBox="0 0 571.08 484.61"><defs><style>.cls-1{fill:#231f20;}</style></defs><path class="cls-1" d="M202.65,168.58c2.08-6.5-8.47-14.39-14.68-12s-8.82,10.56-9.43,18.79h18.4V177h-18.5c-.1,1.79-.13,3.62-.13,5.46v34.08h0c.06,10.32,2.64,17.31,7.91,18.65H162.6c5.27-1.34,7.85-8.33,7.9-18.65V182.44h0a39.11,39.11,0,0,1,.36-5.46H160.66v-1.59h10.41l-.13,1.13c1.89-12.46,9.7-18.64,16.31-21.34a20.23,20.23,0,0,1,22.42,4.47Z"/><path class="cls-1" d="M231.83,190.56c1.11-3.3-1.15-7.39-4.72-9.52-5-2.83-9.72-3-14-.76-5.11,2.7-6.69,7.55-7.14,13.39v23h0c.05,10.32,2.63,17.31,7.9,18.65H190.26c5.27-1.34,7.85-8.33,7.91-18.65h0V195c-.15-10-2.73-16.78-7.91-18.09H206v6.94a27.51,27.51,0,0,1,6.41-5c7.12-4.07,18.07-5.66,26.46,2.76C238.85,181.62,233.93,187.83,231.83,190.56Z"/><path class="cls-1" d="M294.53,226a30.57,30.57,0,1,1-5-44.34l-4.31,5.32h0l-29.73,36.37c7.92,9.45,19.66,13.31,28.87,8.64a18.89,18.89,0,0,0,7.9-7.69Zm-39.81-3.63,29.64-36.25c-7.73-7.34-18-10-26.2-5.81C247,186,243.73,202.14,251,216.41A37.67,37.67,0,0,0,254.72,222.33Z"/><path class="cls-1" d="M336.91,233.27c-12.89,6.17-33.48.5-39.05-3.33h0l4.33-4.72h0l3.68-4c-1.88,3.53-.91,7,7.83,10.55,8.07,2.86,17.23,3.47,22.64.49,10.33-5.69,5.41-20.95-19.69-25.38-27.33-4.83-19.08-23.69-7.94-29.26,4.21-2.1,8.91-2.75,13.86-2.75a35.24,35.24,0,0,1,20,6.08h0l-1.83,2h0l-6,6.48c1.88-3.53,1.06-7.22-7.67-10.76-6.19-2.44-12.69-2.82-17.81-.05-8.42,4.55-6.73,17.89,9.16,21C353.74,206.39,352.31,225.91,336.91,233.27Z"/><path class="cls-1" d="M412.38,235.33H388.77c5.27-1.34,6.8-7.92,5.14-18.64-4.4-27.19-8-38.07-16.5-38.07-6.26,0-13.3,10.61-14.54,22.48v15.58c.06,10.32,2.63,17.31,7.91,18.65H347.16c5.27-1.34,7.85-8.33,7.9-18.65h0V172.06h0c-.05-10.32-2.63-17.31-7.9-18.64h15.71v41c2.92-11.37,9.5-18.86,17.2-18.86,12.51,0,15.89,6.75,21.56,41.14C403.29,227.09,407.11,234,412.38,235.33Z"/><path class="cls-1" d="M224.67,297.63a29.58,29.58,0,1,1-4.81-42.89l-4.17,5.15h0l-28.75,35.18c7.65,9.13,19,12.88,27.92,8.36A18.35,18.35,0,0,0,222.5,296Zm-38.51-3.51,28.67-35.07c-7.48-7.1-17.38-9.65-25.34-5.61-10.84,5.5-14,21.15-7,34.95A35.26,35.26,0,0,0,186.16,294.12Z"/><path class="cls-1" d="M297.82,250.07c-5.1,1.06-11.21,4-16.32,14.92L262.88,304.8c-.27.6-.55,1.18-.82,1.75l-.06.14c-7.2,15.17-13.1,22.65-21.66,28.25a43.31,43.31,0,0,1-14.21,6v-9a33.88,33.88,0,0,0,13-3.17c9.36-4.48,15.5-10.39,21.17-22.11h0l-19.56-41.55h0c-4.1-8.75-9.48-13.86-14.58-14.93H249c-5.1,1.07-4.83,6.17-.71,14.93l15.78,33.54L279.92,265c5.62-11.95,2.72-14.12-1.55-14.93h9.34l-.07.14h.15l.07-.14Z"/><path class="cls-1" d="M346.12,297.63a29.58,29.58,0,1,1-4.81-42.89l-4.17,5.15h0l-28.75,35.18c7.65,9.13,19,12.88,27.92,8.36a18.33,18.33,0,0,0,7.64-7.44Zm-38.51-3.51,28.67-35.07c-7.48-7.1-17.38-9.65-25.34-5.61-10.84,5.5-14,21.15-6.95,34.95A35.26,35.26,0,0,0,307.61,294.12Z"/><path class="cls-1" d="M389.55,305.36c-12.48,6-32.39.48-37.78-3.22h0l4.19-4.56h0l3.56-3.86c-1.81,3.41-.87,6.76,7.58,10.19,7.8,2.77,16.67,3.37,21.9.48,10-5.5,5.23-20.26-19-24.55-26.44-4.67-18.46-22.92-7.69-28.3,4.07-2,8.62-2.66,13.41-2.66A34.05,34.05,0,0,1,395,254.75h0l-1.78,1.93h0L387.47,263c1.81-3.42,1-7-7.43-10.41-6-2.35-12.27-2.72-17.23,0-8.14,4.4-6.51,17.3,8.87,20.26C405.82,279.36,404.44,298.23,389.55,305.36Z"/><path class="cls-1" d="M272.15,334.47c-2.93,1.41-7.61.12-8.88-.75h0l1-1.08h0l.84-.9c-.43.8-.21,1.59,1.78,2.39,1.83.65,3.92.79,5.15.11,2.35-1.29,1.23-4.76-4.48-5.77-6.21-1.09-4.34-5.38-1.81-6.65a7,7,0,0,1,3.16-.63,8,8,0,0,1,4.54,1.39h0L273,323h0l-1.36,1.48c.43-.81.24-1.64-1.74-2.45a4.85,4.85,0,0,0-4.05,0c-1.92,1-1.53,4.07,2.08,4.76C276,328.36,275.65,332.8,272.15,334.47Z"/><path class="cls-1" d="M286.25,334.34A6.95,6.95,0,1,1,289.3,325,7,7,0,0,1,286.25,334.34Zm1.47-8.54c-1.65-3.24-5.05-4.82-7.6-3.53s-3.28,5-1.63,8.22,5,4.82,7.59,3.53S289.36,329.05,287.72,325.8Z"/><path class="cls-1" d="M296.42,334.79h-5.37c1.2-.31,1.78-1.9,1.8-4.24h0V320.4h0c0-2.34-.6-3.93-1.8-4.24h3.57v14.39C294.63,332.89,295.22,334.48,296.42,334.79Z"/><path class="cls-1" d="M310.08,334.79H306.5v-2.18a4.76,4.76,0,0,1-4,2.49c-2.2,0-4.26-.62-4.26-5.94v-3.41h0c0-2.35-.59-3.94-1.79-4.24h5.37c-1.2.3-1.79,1.89-1.8,4.24h0v3.41c0,3.27.56,5.25,3.05,5.25a4.08,4.08,0,0,0,3.4-2.4v-6.26h0c0-2.35-.59-3.94-1.79-4.24h5.37c-1.2.3-1.79,1.89-1.8,4.24v4.8C308.29,332.89,308.88,334.48,310.08,334.79Z"/><path class="cls-1" d="M315.52,335.1c-2.71,0-3.6-.63-3.6-6v-5.84h0c0-2.57-.32-3.91-1.79-4.24h3.57v2.12h2.51l-.26.37H313.7v7.59C313.7,332.38,313.72,334.61,315.52,335.1Z"/><path class="cls-1" d="M321.56,334.79h-5.37c1.2-.31,1.79-1.9,1.8-4.24h0v-4.8h0c0-2.35-.6-3.94-1.8-4.24h3.57v9C319.78,332.89,320.36,334.48,321.56,334.79Zm-4-15.53a1.35,1.35,0,1,1,1.55,1.12A1.35,1.35,0,0,1,317.53,319.26Z"/><path class="cls-1" d="M332.65,334.34A6.95,6.95,0,1,1,335.7,325,7,7,0,0,1,332.65,334.34Zm1.47-8.54c-1.65-3.24-5.05-4.82-7.6-3.53s-3.28,5-1.63,8.22,5,4.82,7.59,3.53S335.76,329.05,334.12,325.8Z"/><path class="cls-1" d="M352.39,334.79H347c1.19-.31,1.54-1.8,1.17-4.24-1-6.18-1.81-8.66-3.76-8.66-1,0-2.51,1.27-3.35,3v5.66c0,2.34.59,3.93,1.79,4.24H337.5c1.2-.31,1.79-1.9,1.8-4.24h0v-4.8h0c0-2.35-.6-3.94-1.8-4.24h3.58v2.6a5,5,0,0,1,4-2.92c2.84,0,3.61,1.54,4.9,9.36C350.32,332.91,351.19,334.48,352.39,334.79Z"/><path class="cls-1" d="M362.35,334.47c-2.94,1.41-7.62.12-8.88-.75h0l1-1.08h0l.83-.9c-.42.8-.2,1.59,1.79,2.39,1.83.65,3.91.79,5.14.11,2.35-1.29,1.23-4.76-4.47-5.77-6.22-1.09-4.34-5.38-1.81-6.65a6.94,6.94,0,0,1,3.15-.63,8,8,0,0,1,4.54,1.39h0l-.42.45h0l-1.35,1.48c.42-.81.24-1.64-1.75-2.45a4.85,4.85,0,0,0-4.05,0c-1.91,1-1.53,4.07,2.09,4.76C366.17,328.36,365.85,332.8,362.35,334.47Z"/></svg>